<svg width="299" height="93" viewBox="0 0 299 93" fill="none" xmlns="http://www.w3.org/2000/svg">
<path d="M0.6 92V9.32H28.56C42.16 9.32 52.4 11.56 59.28 16.04C66.24 20.44 69.72 26.96 69.72 35.6C69.72 41.6 68.2 46.72 65.16 50.96C62.2 55.12 58 58.32 52.56 60.56C47.12 62.72 40.72 63.8 33.36 63.8H27.12V92H0.6ZM32.28 47.12C36.52 47.12 39.8 46.24 42.12 44.48C44.44 42.72 45.6 40.08 45.6 36.56C45.6 33.28 44.48 30.84 42.24 29.24C40 27.56 36.76 26.72 32.52 26.72H27.12V47.12H32.28ZM109.495 92.96C99.3353 92.96 91.3753 90.4 85.6153 85.28C79.9353 80.08 77.0953 72.92 77.0953 63.8V31.88H101.815V64.88C101.815 68.08 102.495 70.44 103.855 71.96C105.295 73.48 107.215 74.24 109.615 74.24C111.935 74.24 113.735 73.48 115.015 71.96C116.375 70.44 117.055 68.08 117.055 64.88V31.88H141.295V63.8C141.295 73 138.495 80.16 132.895 85.28C127.375 90.4 119.575 92.96 109.495 92.96ZM178.015 92H152.695V12.92L178.015 9.19999V50.36L206.215 27.44L219.175 44.12L202.255 58.28C203.375 63.96 205.015 67.96 207.175 70.28C209.335 72.52 212.135 73.64 215.575 73.64C217.015 73.64 218.735 73.4 220.735 72.92L218.935 92.24C217.415 92.56 216.055 92.76 214.855 92.84C213.655 92.92 212.495 92.96 211.375 92.96C203.455 92.96 197.175 91.08 192.535 87.32C187.975 83.48 184.615 77.88 182.455 70.52L178.015 74.36V92ZM250.013 92.96C244.653 92.96 240.293 92 236.933 90.08C233.653 88.16 231.253 85.56 229.732 82.28C228.213 79 227.453 75.32 227.453 71.24V31.88H252.773V67.76C252.773 69.6 253.293 71.04 254.333 72.08C255.453 73.04 256.773 73.52 258.293 73.52C259.893 73.52 261.533 73.04 263.213 72.08L264.533 88.76C262.773 90.12 260.493 91.16 257.693 91.88C254.893 92.6 252.333 92.96 250.013 92.96ZM240.173 25.28C236.493 25.28 233.333 24.12 230.693 21.8C228.053 19.4 226.733 16.48 226.733 13.04C226.733 10.64 227.373 8.56 228.653 6.8C229.933 4.96 231.613 3.51999 233.693 2.47999C235.773 1.43999 237.933 0.919992 240.173 0.919992C242.653 0.919992 244.893 1.47999 246.893 2.59999C248.973 3.72 250.613 5.2 251.812 7.04C253.093 8.87999 253.733 10.88 253.733 13.04C253.733 15.44 253.053 17.56 251.693 19.4C250.413 21.24 248.733 22.68 246.653 23.72C244.653 24.76 242.493 25.28 240.173 25.28Z" fill="#F3D4AD"/>
<path d="M284.91 92.72C280.51 92.72 277.15 91.56 274.83 89.24C272.51 86.84 271.35 83.92 271.35 80.48C271.35 76.96 272.59 74.08 275.07 71.84C277.55 69.52 280.83 68.36 284.91 68.36C288.99 68.36 292.23 69.56 294.63 71.96C297.11 74.36 298.35 77.2 298.35 80.48C298.35 84.16 297.19 87.12 294.87 89.36C292.63 91.6 289.31 92.72 284.91 92.72Z" fill="#3F4C39"/>
</svg>
