<svg width="225" height="70" viewBox="0 0 225 70" fill="none" xmlns="http://www.w3.org/2000/svg">
<path d="M0.95 69V6.99H21.92C32.12 6.99 39.8 8.67 44.96 12.03C50.18 15.33 52.79 20.22 52.79 26.7C52.79 31.2 51.65 35.04 49.37 38.22C47.15 41.34 44 43.74 39.92 45.42C35.84 47.04 31.04 47.85 25.52 47.85H20.84V69H0.95ZM24.71 35.34C27.89 35.34 30.35 34.68 32.09 33.36C33.83 32.04 34.7 30.06 34.7 27.42C34.7 24.96 33.86 23.13 32.18 21.93C30.5 20.67 28.07 20.04 24.89 20.04H20.84V35.34H24.71ZM82.6215 69.72C75.0015 69.72 69.0315 67.8 64.7115 63.96C60.4515 60.06 58.3215 54.69 58.3215 47.85V23.91H76.8615V48.66C76.8615 51.06 77.3715 52.83 78.3915 53.97C79.4715 55.11 80.9115 55.68 82.7115 55.68C84.4515 55.68 85.8015 55.11 86.7615 53.97C87.7815 52.83 88.2915 51.06 88.2915 48.66V23.91H106.471V47.85C106.471 54.75 104.371 60.12 100.171 63.96C96.0315 67.8 90.1815 69.72 82.6215 69.72ZM134.011 69H115.021V9.69L134.011 6.89999V37.77L155.161 20.58L164.881 33.09L152.191 43.71C153.031 47.97 154.261 50.97 155.881 52.71C157.501 54.39 159.601 55.23 162.181 55.23C163.261 55.23 164.551 55.05 166.051 54.69L164.701 69.18C163.561 69.42 162.541 69.57 161.641 69.63C160.741 69.69 159.871 69.72 159.031 69.72C153.091 69.72 148.381 68.31 144.901 65.49C141.481 62.61 138.961 58.41 137.341 52.89L134.011 55.77V69ZM188.009 69.72C183.989 69.72 180.719 69 178.199 67.56C175.739 66.12 173.939 64.17 172.799 61.71C171.659 59.25 171.089 56.49 171.089 53.43V23.91H190.079V50.82C190.079 52.2 190.469 53.28 191.249 54.06C192.089 54.78 193.079 55.14 194.219 55.14C195.419 55.14 196.649 54.78 197.909 54.06L198.899 66.57C197.579 67.59 195.869 68.37 193.769 68.91C191.669 69.45 189.749 69.72 188.009 69.72ZM180.629 18.96C177.869 18.96 175.499 18.09 173.519 16.35C171.539 14.55 170.549 12.36 170.549 9.78C170.549 7.98 171.029 6.42 171.989 5.1C172.949 3.72 174.209 2.64 175.769 1.86C177.329 1.07999 178.949 0.689994 180.629 0.689994C182.489 0.689994 184.169 1.10999 185.669 1.94999C187.229 2.79 188.459 3.9 189.359 5.28C190.319 6.66 190.799 8.15999 190.799 9.78C190.799 11.58 190.289 13.17 189.269 14.55C188.309 15.93 187.049 17.01 185.489 17.79C183.989 18.57 182.369 18.96 180.629 18.96Z" fill="#3F4C39"/>
<path d="M214.183 69.54C210.883 69.54 208.363 68.67 206.623 66.93C204.883 65.13 204.013 62.94 204.013 60.36C204.013 57.72 204.943 55.56 206.803 53.88C208.663 52.14 211.123 51.27 214.183 51.27C217.243 51.27 219.673 52.17 221.473 53.97C223.333 55.77 224.263 57.9 224.263 60.36C224.263 63.12 223.393 65.34 221.653 67.02C219.973 68.7 217.483 69.54 214.183 69.54Z" fill="#F3D4AD"/>
</svg>
